# xmcd CD database file generated by Grip 2.7
# 
# Track frame offsets:
#       150
#       13255
#       27865
#       40660
#       53960
#       68447
#       81965
#       96362
#       108632
#       122140
#       137235
#       149830
#       163610
#       176527
#       188650
#       203117
#       218285
#       232242
#       246222
#       260392
#       272697
#       288837
#       300835
# 
# Disc length: 4206 seconds
# 
# Revision: 3
# Processed by: cddbd v1.4b41PL1 Copyright (c) Steve Scherf et al.
# Submitted via: Grip 2.7
# 
DISCID=4a106c17
DTITLE=Ink Spots - The Best of the Ink Spots
DYEAR=1900
DGENRE=
TTITLE0=Stompin' At The Savoy
TTITLE1=Cristopher Columbus
TTITLE2=Bless You
TTITLE3=When The Swallows Come Back To Capistrano
TTITLE4=My Prayer
TTITLE5=I Don't Want To Set The World On Fire
TTITLE6=Into Each Life Some Rain Must Fall
TTITLE7=Whispering Grass
TTITLE8=Don't Get Around Much Anymore
TTITLE9=We Three (My Echo, My Shadow And Me)
TTITLE10=I'm Getting Sentimental Over You
TTITLE11=Java Jive
TTITLE12=With Plenty Of Money And You
TTITLE13=Do I Worry?
TTITLE14=Someone's Rocking My Dreamboat
TTITLE15=I'll Never Smile Again
TTITLE16=Maybe
TTITLE17=If I Didn't Care
TTITLE18=Coquette
TTITLE19=I'm Beginning To See The Light
TTITLE20=Until The Real Thing Comes Along
TTITLE21=Swing High, Swing Low
TTITLE22=When The Sun Goes Down
EXTD=
EXTT0=
EXTT1=
EXTT2=
EXTT3=
EXTT4=
EXTT5=
EXTT6=
EXTT7=
EXTT8=
EXTT9=
EXTT10=
EXTT11=
EXTT12=
EXTT13=
EXTT14=
EXTT15=
EXTT16=
EXTT17=
EXTT18=
EXTT19=
EXTT20=
EXTT21=
EXTT22=
PLAYORDER=
